<?xml version="1.0" encoding="UTF-8"?>
<svg width="96px" height="96px" viewBox="0 0 96 96" version="1.1" xmlns="http://www.w3.org/2000/svg" xmlns:xlink="http://www.w3.org/1999/xlink">
    <title>launcher</title>
    <defs>
        <circle id="path-1" cx="48" cy="48" r="20.25"></circle>
        <path d="M11.0561126,5.51317733 L11.0561126,19.0131773 C11.0561126,19.8381773 11.7311126,20.5131773 12.5561126,20.5131773 L15.5561126,20.5131773 L15.5561126,31.2381773 C15.5561126,32.0031773 16.5611126,32.2731773 16.9511126,31.6131773 L24.7361126,18.2631773 C25.3211126,17.2581773 24.6011126,16.0131773 23.4461126,16.0131773 L20.0561126,16.0131773 L23.7911126,6.03817733 C24.1661126,5.06317733 23.4461126,4.01317733 22.3961126,4.01317733 L12.5561126,4.01317733 C11.7311126,4.01317733 11.0561126,4.68817733 11.0561126,5.51317733 Z" id="path-2"></path>
    </defs>
    <g id="launcher" stroke="none" stroke-width="1" fill="none" fill-rule="evenodd">
        <g id="launcher">
            <path d="M23.0749668,-9.32256277e-16 L72.9250332,9.32256277e-16 C80.9487019,-5.41667744e-16 83.858278,0.8354305 86.7916113,2.40419433 C89.7249447,3.97295817 92.0270418,6.27505533 93.5958057,9.20838867 C95.1645695,12.141722 96,15.0512981 96,23.0749668 L96,72.9250332 C96,80.9487019 95.1645695,83.858278 93.5958057,86.7916113 C92.0270418,89.7249447 89.7249447,92.0270418 86.7916113,93.5958057 C83.858278,95.1645695 80.9487019,96 72.9250332,96 L23.0749668,96 C15.0512981,96 12.141722,95.1645695 9.20838867,93.5958057 C6.27505533,92.0270418 3.97295817,89.7249447 2.40419433,86.7916113 C0.8354305,83.858278 3.61111829e-16,80.9487019 -6.21504185e-16,72.9250332 L6.21504185e-16,23.0749668 C-3.61111829e-16,15.0512981 0.8354305,12.141722 2.40419433,9.20838867 C3.97295817,6.27505533 6.27505533,3.97295817 9.20838867,2.40419433 C12.141722,0.8354305 15.0512981,5.41667744e-16 23.0749668,-9.32256277e-16 Z" id="base" fill="#262626"></path>
            <g id="oval">
                <use fill="#121212" fill-rule="evenodd" xlink:href="#path-1"></use>
                <circle stroke="#FFFFFF" stroke-width="12" cx="48" cy="48" r="26.25"></circle>
                <circle stroke="#121212" stroke-width="5.25" cx="48" cy="48" r="22.875"></circle>
                <use stroke="#121212" stroke-width="1.5" xlink:href="#path-1"></use>
            </g>
            <g id="icon/image/flash_on_24px" transform="translate(30.375000, 30.750000)">
                <rect id="base" fill="#121212" opacity="0" x="0" y="0" width="36" height="36"></rect>
                <mask id="mask-3" fill="white">
                    <use xlink:href="#path-2"></use>
                </mask>
                <g fill-rule="nonzero"></g>
                <rect id="base" fill="#FFFFFF" mask="url(#mask-3)" x="0" y="0" width="36" height="36"></rect>
            </g>
            <circle id="Oval" fill="#784CEE" cx="81" cy="15" r="4.5"></circle>
        </g>
    </g>
</svg>