<?xml version="1.0" encoding="UTF-8"?>
<svg width="40px" height="40px" viewBox="0 0 40 40" version="1.1" xmlns="http://www.w3.org/2000/svg" xmlns:xlink="http://www.w3.org/1999/xlink">
    <title>launcher</title>
    <defs>
        <linearGradient x1="50%" y1="0%" x2="50%" y2="100%" id="linearGradient-1">
            <stop stop-color="#FFFFFF" offset="0%"></stop>
            <stop stop-color="#FFFFFF" stop-opacity="0" offset="100%"></stop>
        </linearGradient>
        <circle id="path-2" cx="20" cy="20" r="8.4375"></circle>
        <path d="M4.60671357,2.29715722 L4.60671357,7.92215722 C4.60671357,8.26590722 4.88796357,8.54715722 5.23171357,8.54715722 L6.48171357,8.54715722 L6.48171357,13.0159072 C6.48171357,13.3346572 6.90046357,13.4471572 7.06296357,13.1721572 L10.3067136,7.60965722 C10.5504636,7.19090722 10.2504636,6.67215722 9.76921357,6.67215722 L8.35671357,6.67215722 L9.91296357,2.51590722 C10.0692136,2.10965722 9.76921357,1.67215722 9.33171357,1.67215722 L5.23171357,1.67215722 C4.88796357,1.67215722 4.60671357,1.95340722 4.60671357,2.29715722 Z" id="path-3"></path>
    </defs>
    <g id="launcher" stroke="none" stroke-width="1" fill="none" fill-rule="evenodd">
        <g id="launcher">
            <path d="M11.0166942,-4.45087632e-16 L28.9833058,4.45087632e-16 C32.8140504,-2.58608732e-16 34.2031709,0.398860048 35.6036339,1.14783584 C37.0040968,1.89681163 38.1031884,2.99590315 38.8521642,4.39636612 C39.60114,5.79682908 40,7.18594963 40,11.0166942 L40,28.9833058 C40,32.8140504 39.60114,34.2031709 38.8521642,35.6036339 C38.1031884,37.0040968 37.0040968,38.1031884 35.6036339,38.8521642 C34.2031709,39.60114 32.8140504,40 28.9833058,40 L11.0166942,40 C7.18594963,40 5.79682908,39.60114 4.39636612,38.8521642 C2.99590315,38.1031884 1.89681163,37.0040968 1.14783584,35.6036339 C0.398860048,34.2031709 1.72405821e-16,32.8140504 -2.96725088e-16,28.9833058 L2.96725088e-16,11.0166942 C-1.72405821e-16,7.18594963 0.398860048,5.79682908 1.14783584,4.39636612 C1.89681163,2.99590315 2.99590315,1.89681163 4.39636612,1.14783584 C5.79682908,0.398860048 7.18594963,2.58608732e-16 11.0166942,-4.45087632e-16 Z" id="base" fill="#262626"></path>
            <path d="M11.8588791,1.875 L28.1411209,1.875 C31.6127331,1.875 32.8716236,2.23646692 34.1407932,2.91522623 C35.4099628,3.59398554 36.4060145,4.59003723 37.0847738,5.85920679 C37.7635331,7.12837635 38.125,8.38726686 38.125,11.8588791 L38.125,28.1411209 C38.125,31.6127331 37.7635331,32.8716236 37.0847738,34.1407932 C36.4060145,35.4099628 35.4099628,36.4060145 34.1407932,37.0847738 C32.8716236,37.7635331 31.6127331,38.125 28.1411209,38.125 L11.8588791,38.125 C8.38726686,38.125 7.12837635,37.7635331 5.85920679,37.0847738 C4.59003723,36.4060145 3.59398554,35.4099628 2.91522623,34.1407932 C2.23646692,32.8716236 1.875,31.6127331 1.875,28.1411209 L1.875,11.8588791 C1.875,8.38726686 2.23646692,7.12837635 2.91522623,5.85920679 C3.59398554,4.59003723 4.59003723,3.59398554 5.85920679,2.91522623 C7.12837635,2.23646692 8.38726686,1.875 11.8588791,1.875 Z" id="base" fill="url(#linearGradient-1)" opacity="0.08"></path>
            <g id="oval">
                <use fill="#121212" fill-rule="evenodd" xlink:href="#path-2"></use>
                <circle stroke="#FFFFFF" stroke-width="5" cx="20" cy="20" r="10.9375"></circle>
                <circle stroke="#121212" stroke-width="2.1875" cx="20" cy="20" r="9.53125"></circle>
                <use stroke="#121212" stroke-width="0.625" xlink:href="#path-2"></use>
            </g>
            <g id="icon/image/flash_on_24px" transform="translate(12.656250, 12.812500)">
                <rect id="base" fill="#121212" opacity="0" x="0" y="0" width="15" height="15"></rect>
                <mask id="mask-4" fill="white">
                    <use xlink:href="#path-3"></use>
                </mask>
                <g fill-rule="nonzero"></g>
                <rect id="base" fill="#FFFFFF" mask="url(#mask-4)" x="0" y="0" width="15" height="15"></rect>
            </g>
            <circle id="Oval" fill="#784CEE" cx="32.5" cy="7.5" r="1.875"></circle>
        </g>
    </g>
</svg>