<?xml version="1.0" encoding="UTF-8"?>
<svg width="48px" height="48px" viewBox="0 0 48 48" version="1.1" xmlns="http://www.w3.org/2000/svg" xmlns:xlink="http://www.w3.org/1999/xlink">
    <title>auto_delete</title>
    <g id="auto_delete" stroke="none" stroke-width="1" fill="none" fill-rule="evenodd">
        <g id="Group">
            <g>
                <rect id="Rectangle" x="0" y="0" width="48" height="48"></rect>
                <rect id="Rectangle" x="0" y="0" width="48" height="48"></rect>
            </g>
            <g transform="translate(2.000000, 2.000000)" fill="#FFFFFF" fill-rule="nonzero">
                <path d="M30,16 C28.6,16 27.26,16.2 26,16.58 L26,12 C26,9.8 24.2,8 22,8 L6,8 C3.8,8 2,9.8 2,12 L2,32 C2,34.2 3.8,36 6,36 L17.36,36 C19.6,40.72 24.42,44 30,44 C37.74,44 44,37.74 44,30 C44,22.26 37.74,16 30,16 Z M30,40 C24.48,40 20,35.52 20,30 C20,24.48 24.48,20 30,20 C35.52,20 40,24.48 40,30 C40,35.52 35.52,40 30,40 Z" id="Shape"></path>
                <path d="M26,6 C27.1,6 28,5.1 28,4 C28,2.9 27.1,2 26,2 L21,2 L19.58,0.58 C19.22,0.22 18.7,0 18.18,0 L9.82,0 C9.3,0 8.78,0.22 8.42,0.58 L7,2 L2,2 C0.9,2 0,2.9 0,4 C0,5.1 0.9,6 2,6 L26,6 Z" id="Path"></path>
                <path d="M29.5,22 L29.5,22 C28.68,22 28,22.68 28,23.5 L28,30.86 C28,31.58 28.38,32.22 29,32.58 L34.04,35.52 C34.7,35.9 35.54,35.7 35.96,35.08 L35.96,35.08 C36.42,34.4 36.2,33.46 35.48,33.04 L31,30.4 L31,23.5 C31,22.68 30.32,22 29.5,22 Z" id="Path"></path>
            </g>
        </g>
    </g>
</svg>