<?xml version="1.0" encoding="UTF-8"?>
<svg width="48px" height="48px" viewBox="0 0 48 48" version="1.1" xmlns="http://www.w3.org/2000/svg" xmlns:xlink="http://www.w3.org/1999/xlink">
    <title>cloud_off</title>
    <g id="cloud_off" stroke="none" stroke-width="1" fill="none" fill-rule="evenodd">
        <g>
            <polygon id="Path" points="0 0 48 0 48 48 0 48"></polygon>
            <path d="M48,30 C48,24.72 43.9,20.44 38.7,20.08 C37.34,13.18 31.28,8 24,8 C21.34,8 18.86,8.72 16.7,9.94 L19.68,12.92 C21.02,12.34 22.46,12 24,12 C30.08,12 35,16.92 35,23 L35,24 L38,24 C41.32,24 44,26.68 44,30 C44,31.98 43.04,33.7 41.58,34.8 L44.4,37.62 C46.58,35.78 48,33.08 48,30 Z M7.42,9.12 C6.64,9.9 6.64,11.16 7.42,11.94 L11.54,16.06 L10.7,16.06 C4.14,16.76 -0.82,22.74 0.12,29.64 C0.92,35.68 6.38,40 12.44,40 L35.46,40 L38.04,42.58 C38.82,43.36 40.08,43.36 40.86,42.58 C41.64,41.8 41.64,40.54 40.86,39.76 L10.24,9.12 C9.46,8.34 8.2,8.34 7.42,9.12 Z M12,36 C7.58,36 4,32.42 4,28 C4,23.58 7.58,20 12,20 L15.46,20 L31.46,36 L12,36 Z" id="Shape" fill="#FFFFFF" fill-rule="nonzero"></path>
        </g>
    </g>
</svg>